<?xml version="1.0" encoding="UTF-8" standalone="no"?>
<svg
   xmlns:dc="http://purl.org/dc/elements/1.1/"
   xmlns:cc="http://creativecommons.org/ns#"
   xmlns:rdf="http://www.w3.org/1999/02/22-rdf-syntax-ns#"
   xmlns:svg="http://www.w3.org/2000/svg"
   xmlns="http://www.w3.org/2000/svg"
   xmlns:sodipodi="http://sodipodi.sourceforge.net/DTD/sodipodi-0.dtd"
   xmlns:inkscape="http://www.inkscape.org/namespaces/inkscape"
   width="178.90073pt"
   height="156.09027pt"
   viewBox="0 0 178.90073 156.09027"
   version="1.1"
   id="svg2"
   inkscape:version="0.91 r"
   sodipodi:docname="favicon.svg">
  <metadata
     id="metadata61">
    <rdf:RDF>
      <cc:Work
         rdf:about="">
        <dc:format>image/svg+xml</dc:format>
        <dc:type
           rdf:resource="http://purl.org/dc/dcmitype/StillImage" />
        <dc:title></dc:title>
      </cc:Work>
    </rdf:RDF>
  </metadata>
  <defs
     id="defs59" />
  <sodipodi:namedview
     pagecolor="#ffffff"
     bordercolor="#666666"
     borderopacity="1"
     objecttolerance="10"
     gridtolerance="10"
     guidetolerance="10"
     inkscape:pageopacity="0"
     inkscape:pageshadow="2"
     inkscape:window-width="1440"
     inkscape:window-height="843"
     id="namedview57"
     showgrid="false"
     fit-margin-top="0"
     fit-margin-left="0"
     fit-margin-right="0"
     fit-margin-bottom="0"
     inkscape:zoom="0.68031496"
     inkscape:cx="217.94076"
     inkscape:cy="227.46613"
     inkscape:window-x="1280"
     inkscape:window-y="30"
     inkscape:window-maximized="1"
     inkscape:current-layer="svg2" />
  <g
     id="#f1f2ecff"
     transform="translate(-26.939292,-65.53)" />
  <path
     style="opacity:1;fill:#3f3b39"
     inkscape:connector-curvature="0"
     id="path10"
     d="m 131.09071,16.23 c 17.19,0.66 34.64,-5.11 47.81,-16.23 -7.23,13.39 -20.58,22.45 -34.52,27.81 -14.45,5.62 -30.63,5.51 -45.510002,1.7 -3.75,-0.8 -7.56,-2.39 -11.43,-1.53 -2.66,0.66 -4.35,3.11 -5.38,5.49 -2.6,5.91 -4.63,12.04 -7.23,17.94 -5.27,-0.31 -10.5,-0.93 -15.72,-1.68 2.33,-6.04 4.92,-11.98 7.15,-18.06 1.73,-4.24 -1.87,-9.07 -6.11,-9.82 -1.51,-0.71 -4.26,-0.38 -4.54,-2.5 -1.43,-5.13 2.21,-11.13 7.5,-12.12 3.59,-0.68 7.23,0.31 10.79,0.79 18.94,3.47 37.880002,7.55 57.190002,8.21 z" />
  <path
     style="opacity:1;fill:#3f3b39"
     inkscape:connector-curvature="0"
     id="path32"
     d="m 54.240708,59.99 c 5.04,1.19 10,2.73 14.9,4.39 -6.52,16.51 -13.09,33.63 -25.24,46.94 -7.25,8.07 -17.83,13.76 -28.91,12.95 C 7.3407076,123.8 0.95070757,117.15 0.18070757,109.62 -1.4692924,99.56 8.4607076,89.83 18.450708,91.3 c -1.97,1.4 -4.36,1.96 -6.46,3.1 -3.6400004,2.35 -4.7900004,7.82 -2.2300004,11.38 2.2200004,3.61 7.1000004,4.46 10.8900004,3.17 5.92,-2.12 10.49,-6.76 14.24,-11.65 8.46,-11.27 14.15,-24.29 19.35,-37.31 z" />
  <g
     id="#bdafa2ff"
     transform="translate(-26.939292,-65.53)">
    <path
       d="m 52.86,107.24 c 6.57,2.37 12.96,5.27 19.7,7.15 24.13,7.15 49.86,5.72 74.41,1.65 8.72,-1.52 18.27,-0.76 25.87,4.11 6.95,4.3 12.01,11.67 13.17,19.8 1.7,10.83 -2.34,22.19 -10,29.94 -9.62,9.99 -23.5,14.68 -37.02,16.07 -7.94,1.02 -15.96,0.7 -23.91,0.1 1.77,-4.23 3.63,-8.42 5.6,-12.57 11.17,-0.45 22.6,-0.75 33.23,-4.61 5.2,-1.9 10.48,-4.59 13.71,-9.26 3.92,-5.91 4.49,-14.04 1.07,-20.31 -3.46,-6.17 -10.71,-9.85 -17.73,-9.17 -10.61,1.02 -21.29,1.13 -31.95,0.74 -23.62,-1.46 -47.32,-9.04 -66.15,-23.64 z"
       id="path53"
       inkscape:connector-curvature="0"
       style="opacity:1;fill:#bdafa2" />
    <path
       d="m 106.71,157.4 c 5.53,-0.07 11.06,-0.09 16.59,-0.02 -7.13,17.59 -13.57,36.14 -26.44,50.51 -7.3,8.36 -18.04,14.51 -29.42,13.65 -7.57,-0.62 -14,-7.09 -14.78,-14.61 -1.85,-9.93 8.28,-20.28 18.21,-18.03 -3.19,1.57 -7.51,2.24 -9.15,5.84 -2.72,5.07 1.47,12.16 7.26,12.07 5.95,0.03 10.9,-4.05 14.78,-8.15 10.64,-11.85 17.04,-26.67 22.95,-41.26 z"
       id="path55"
       inkscape:connector-curvature="0"
       style="opacity:1;fill:#bdafa2" />
  </g>
</svg>
