<?xml version="1.0" encoding="UTF-8" standalone="no"?>
<!-- Created with Inkscape (http://www.inkscape.org/) -->

<svg
   xmlns:dc="http://purl.org/dc/elements/1.1/"
   xmlns:cc="http://creativecommons.org/ns#"
   xmlns:rdf="http://www.w3.org/1999/02/22-rdf-syntax-ns#"
   xmlns:svg="http://www.w3.org/2000/svg"
   xmlns="http://www.w3.org/2000/svg"
   xmlns:sodipodi="http://sodipodi.sourceforge.net/DTD/sodipodi-0.dtd"
   xmlns:inkscape="http://www.inkscape.org/namespaces/inkscape"
   width="72.219612mm"
   height="45.353767mm"
   viewBox="0 0 255.89626 160.70233"
   id="svg2"
   version="1.1"
   inkscape:version="0.91 r"
   sodipodi:docname="logo.svg">
  <defs
     id="defs4">
    <filter
       inkscape:collect="always"
       style="color-interpolation-filters:sRGB"
       id="filter4251"
       x="-0.011999999"
       width="1.024"
       y="-0.012000001"
       height="1.024">
      <feGaussianBlur
         inkscape:collect="always"
         stdDeviation="0.55714288"
         id="feGaussianBlur4253" />
    </filter>
    <clipPath
       clipPathUnits="userSpaceOnUse"
       id="clipPath4275">
      <path
         style="color:#000000;font-style:normal;font-variant:normal;font-weight:normal;font-stretch:normal;font-size:medium;line-height:normal;font-family:sans-serif;text-indent:0;text-align:start;text-decoration:none;text-decoration-line:none;text-decoration-style:solid;text-decoration-color:#000000;letter-spacing:normal;word-spacing:normal;text-transform:none;direction:ltr;block-progression:tb;writing-mode:lr-tb;baseline-shift:baseline;text-anchor:start;white-space:normal;clip-rule:nonzero;display:inline;overflow:visible;visibility:visible;opacity:1;isolation:auto;mix-blend-mode:normal;color-interpolation:sRGB;color-interpolation-filters:linearRGB;solid-color:#000000;solid-opacity:1;fill:#ffffff;fill-opacity:1;fill-rule:nonzero;stroke:none;stroke-width:3;stroke-linecap:round;stroke-linejoin:round;stroke-miterlimit:4;stroke-dasharray:none;stroke-dashoffset:0;stroke-opacity:1;color-rendering:auto;image-rendering:auto;shape-rendering:auto;text-rendering:auto;enable-background:accumulate"
         d="m 138.08789,452.82422 c -3.57505,0 -6.5,2.92494 -6.5,6.5 l 0,101.42773 c 0,3.57506 2.92495,6.5 6.5,6.5 l 24.66602,0 c 0.82839,-8e-5 1.49992,-0.67161 1.5,-1.5 l 0,-3.68554 c 0,-0.74828 -0.15205,-1.53047 -0.69336,-2.17188 -0.54211,-0.64235 -1.41188,-0.93359 -2.16211,-0.93359 -0.0319,-3.5e-4 -0.0638,3.2e-4 -0.0957,0.002 -2.01671,0.12924 -3.33821,-0.66596 -4.53711,-1.58203 -0.59565,-0.4796 -1.02128,-1.04276 -1.32421,-1.77148 -0.30397,-0.7312 -0.47657,-1.63844 -0.47657,-2.75 l 0,-41.23633 21.98047,0 c 0.8085,0 1.28496,0.1828 1.66407,0.49804 0.0198,0.0162 0.0399,0.0318 0.0605,0.0469 0.27246,0.20391 0.76339,0.8795 1.16406,2.12891 0.007,0.0236 0.015,0.0471 0.0234,0.0703 0.48137,1.28089 0.79115,2.40055 0.93946,3.33789 l 0.002,0.0117 c 0.16553,0.99099 0.41791,2.65074 0.75586,4.95508 l -0.0156,-0.2168 c 0,0.97463 0.57834,2.03868 1.42188,2.54883 0.84304,0.50984 1.78719,0.64062 2.87109,0.64062 l 3.63867,0 c 0.50152,-4e-5 0.96984,-0.25069 1.24805,-0.66797 l 1.01563,-1.52148 c 0.19745,-0.29596 0.28328,-0.65246 0.24218,-1.00586 -0.78616,-6.78005 -1.17383,-12.11542 -1.17383,-15.95703 0,-4.1298 0.3886,-9.42909 1.17383,-15.86524 0.0401,-0.33232 -0.0321,-0.66851 -0.20508,-0.95507 l -1.01562,-1.68946 c -0.27133,-0.45081 -0.759,-0.72651 -1.28516,-0.72656 l -3.63867,0 c -1.07762,0 -2.12323,0.26172 -2.95117,0.9043 -0.72721,0.56438 -1.3418,1.43908 -1.3418,2.45312 l 0.0156,-0.21875 c -0.337,2.29787 -0.5883,3.94721 -0.75391,4.93945 -0.14735,0.83327 -0.46358,1.98551 -0.95508,3.40235 -0.004,0.011 -0.008,0.0221 -0.0117,0.0332 -0.1975,0.61587 -0.41774,1.09711 -0.63086,1.44141 -0.21293,0.34401 -0.41149,0.54458 -0.57031,0.65429 -0.0158,0.0108 -0.0315,0.0218 -0.0469,0.0332 -0.38888,0.29104 -0.87403,0.46094 -1.64063,0.46094 l -21.98047,0 0,-34.05665 c 7e-5,-0.008 7e-5,-0.0169 0,-0.0254 -0.0262,-1.56781 0.18135,-2.65556 0.40821,-3.14062 0.11466,-0.24519 0.20956,-0.32732 0.25,-0.35547 0.0435,-0.0303 0.0591,-0.0469 0.21093,-0.0469 l 26.52735,0 c 0.9282,0 1.81606,0.10035 2.66992,0.29882 0.85382,0.19847 1.67617,0.49539 2.47461,0.89453 0.79803,0.39895 1.57172,0.8999 2.32617,1.51172 0.75361,0.61115 1.48737,1.3339 2.19922,2.17188 0.71156,0.83765 1.40046,1.79034 2.0625,2.85937 0.66261,1.06994 1.29904,2.25513 1.90625,3.5586 1.21451,2.6071 2.31138,5.68525 3.28125,9.22461 0.21125,0.7705 0.9893,1.24026 1.76953,1.06836 l 6.94141,-1.52149 c 0.79729,-0.17485 1.30847,-0.95507 1.15039,-1.75586 -0.86815,-4.41526 -1.60448,-8.94174 -2.20703,-13.58398 -0.60135,-4.63302 -1.07178,-9.38071 -1.40821,-14.24024 -0.0545,-0.78621 -0.708,-1.39623 -1.49609,-1.39648 l -65.94336,0 z"
         id="path4277"
         inkscape:connector-curvature="0"
         sodipodi:nodetypes="csssccsscccsscsccccccccssccccsccccscccccccccscccccssccssssccccscccc" />
    </clipPath>
  </defs>
  <sodipodi:namedview
     id="base"
     pagecolor="#ffffff"
     bordercolor="#666666"
     borderopacity="1.0"
     inkscape:pageopacity="0.0"
     inkscape:pageshadow="2"
     inkscape:zoom="3.959798"
     inkscape:cx="168.58194"
     inkscape:cy="71.504712"
     inkscape:document-units="px"
     inkscape:current-layer="layer1"
     showgrid="false"
     inkscape:window-width="1440"
     inkscape:window-height="845"
     inkscape:window-x="1280"
     inkscape:window-y="148"
     inkscape:window-maximized="1"
     showguides="true"
     inkscape:guide-bbox="true"
     fit-margin-top="0"
     fit-margin-left="0"
     fit-margin-right="0"
     fit-margin-bottom="0" />
  <metadata
     id="metadata7">
    <rdf:RDF>
      <cc:Work
         rdf:about="">
        <dc:format>image/svg+xml</dc:format>
        <dc:type
           rdf:resource="http://purl.org/dc/dcmitype/StillImage" />
        <dc:title />
      </cc:Work>
    </rdf:RDF>
  </metadata>
  <g
     inkscape:label="Capa 1"
     inkscape:groupmode="layer"
     id="layer1"
     transform="translate(-213.1327,-227.32808)">
    <g
       transform="scale(1.0149964,0.98522517)"
       style="font-style:normal;font-variant:normal;font-weight:600;font-stretch:normal;font-size:49.38617706px;line-height:125%;font-family:'Linux Libertine';-inkscape-font-specification:'Linux Libertine, Semi-Bold';text-align:start;letter-spacing:0px;word-spacing:0px;writing-mode:lr-tb;text-anchor:start;fill:#333333;fill-opacity:1;stroke:none;stroke-width:1px;stroke-linecap:butt;stroke-linejoin:miter;stroke-opacity:1"
       id="text4351">
      <path
         d="m 226.62259,263.7256 q -4.05121,0 -7.30665,-1.37451 -3.25544,-1.37452 -5.25693,-3.66538 -2.00149,-2.31498 -3.0384,-5.11225 -1.03692,-2.82137 -1.03692,-5.8839 0,-7.21018 4.8711,-12.08128 4.89521,-4.8711 11.81603,-4.8711 2.8696,0 4.99166,0.55463 2.12207,0.53052 3.47247,1.08515 1.3504,0.55463 2.29086,0.55463 0.24115,3.81006 1.08515,8.34356 l -1.85681,0.38583 q -1.37451,-4.24413 -3.5448,-6.5591 -2.14618,-2.33909 -6.43853,-2.33909 -4.05121,0 -7.16197,3.59303 -3.11075,3.56893 -3.11075,10.39329 0,5.83567 2.6767,10.32093 2.7008,4.48527 7.49956,4.48527 6.2215,0 11.40608,-5.85978 l 1.47098,1.1816 q -5.18459,6.84847 -12.82883,6.84847 z"
         id="path3395"
         inkscape:connector-curvature="0" />
      <path
         d="m 253.53419,243.34898 q -2.21852,0 -3.44835,2.58024 -1.20572,2.55612 -1.20572,6.00447 0,2.0256 0.60286,4.14767 0.60286,2.12206 2.00149,3.83418 1.39864,1.688 3.27955,1.688 1.73624,0 3.06253,-1.61566 1.32629,-1.63978 1.32629,-5.83567 0,-5.18459 -1.54332,-7.98185 -1.51921,-2.82138 -4.07533,-2.82138 z m -10.65854,9.66985 q 0,-5.23281 2.94195,-8.46413 2.96607,-3.23132 8.19888,-3.23132 2.86961,0 5.11224,1.0128 2.26675,1.0128 3.5207,2.70081 1.25394,1.66389 1.8568,3.59303 0.62697,1.92915 0.62697,3.95476 0,1.92914 -0.69931,3.85829 -0.6752,1.90503 -2.00149,3.56892 -1.30218,1.63978 -3.49658,2.6767 -2.19441,1.03691 -4.96756,1.03691 -5.13635,0 -8.12653,-3.27955 -2.96607,-3.27955 -2.96607,-7.42722 z"
         id="path3397"
         inkscape:connector-curvature="0" />
      <path
         d="m 277.06979,244.43413 q 3.0143,-3.11075 6.31796,-3.11075 1.27806,0 2.07383,0.86811 0.79578,0.84401 0.79578,1.88092 0,1.18161 -0.69932,2.00149 -0.6752,0.81989 -1.78446,0.81989 -0.65109,0 -1.25395,-0.28937 -0.57874,-0.31349 -0.94046,-0.6752 -0.36171,-0.38583 -0.74754,-0.69932 -0.38583,-0.31348 -0.6752,-0.31348 -0.89223,0 -1.80858,0.65108 -1.27806,0.89223 -1.27806,3.44835 l 0,10.4174 q 0,0.65109 0.28937,1.08515 0.31349,0.40994 0.77166,0.62697 0.45818,0.21703 1.30218,0.40994 l 0.40994,0.0965 q 0.38583,0.0965 0.38583,0.45817 l 0,1.13338 -0.0965,0.0965 q -3.95475,-0.0965 -5.8839,-0.0965 l -5.7151,0.0965 -0.0964,-0.0965 0,-1.13338 q 0,-0.38583 0.3376,-0.45817 l 0.48228,-0.0965 q 1.22984,-0.24114 1.80858,-0.69931 0.57874,-0.48229 0.57874,-1.42275 l 0,-12.03306 q 0,-1.73623 -0.26525,-2.26675 -0.24115,-0.55463 -0.81989,-0.60285 l -2.02561,-0.19292 -0.0964,-1.688 q 6.02858,-0.79578 8.29533,-1.47098 0.3376,0 0.3376,0.14469 l -0.0965,3.11075 0.0965,0 z"
         id="path3399"
         inkscape:connector-curvature="0" />
      <path
         d="m 296.33715,246.4115 0,13.62461 q 1.51921,1.63977 3.0143,1.61566 2.96606,0 4.36469,-2.58023 1.42275,-2.60435 1.42275,-6.19739 0,-8.99465 -4.38881,-8.99465 -2.14618,0.0241 -4.41293,2.532 z m 0,-1.97737 q 2.72492,-3.11075 5.98036,-3.11075 3.8583,0 6.17327,3.03841 2.31498,3.0384 2.31498,7.18607 0,5.57041 -3.78595,9.38048 -2.82138,2.82138 -7.35488,2.79726 -1.688,0 -3.32778,-0.81988 l 0,7.93362 q 0,0.98868 0.53052,1.42274 0.55463,0.45817 1.8568,0.77166 l 0.38583,0.0965 q 0.38583,0.0965 0.38583,0.38583 l 0,1.1816 -0.0482,0.0965 q -4.00298,-0.0965 -5.90801,-0.0965 l -5.73921,0.0965 -0.0965,-0.0965 0,-1.1816 q 0,-0.28937 0.38583,-0.38583 l 0.45817,-0.0965 q 1.27806,-0.28937 1.80858,-0.74754 0.55463,-0.45818 0.55463,-1.44686 l 0,-23.43915 q 0,-1.73623 -0.24115,-2.26675 -0.24114,-0.55463 -0.844,-0.60285 l -2.0256,-0.19292 -0.0965,-1.688 q 6.02858,-0.79578 8.29533,-1.47098 0.3376,0 0.3376,0.14469 l -0.0965,3.11075 0.0965,0 z"
         id="path3401"
         inkscape:connector-curvature="0" />
      <path
         d="m 325.29848,243.34898 q -2.21852,0 -3.44835,2.58024 -1.20572,2.55612 -1.20572,6.00447 0,2.0256 0.60286,4.14767 0.60286,2.12206 2.00149,3.83418 1.39863,1.688 3.27955,1.688 1.73623,0 3.06252,-1.61566 1.32629,-1.63978 1.32629,-5.83567 0,-5.18459 -1.54332,-7.98185 -1.5192,-2.82138 -4.07532,-2.82138 z m -10.65854,9.66985 q 0,-5.23281 2.94195,-8.46413 2.96606,-3.23132 8.19888,-3.23132 2.8696,0 5.11224,1.0128 2.26675,1.0128 3.52069,2.70081 1.25395,1.66389 1.85681,3.59303 0.62697,1.92915 0.62697,3.95476 0,1.92914 -0.69932,3.85829 -0.6752,1.90503 -2.00149,3.56892 -1.30217,1.63978 -3.49658,2.6767 -2.1944,1.03691 -4.96755,1.03691 -5.13636,0 -8.12654,-3.27955 -2.96606,-3.27955 -2.96606,-7.42722 z"
         id="path3403"
         inkscape:connector-curvature="0" />
      <path
         d="m 348.83409,244.43413 q 3.01429,-3.11075 6.31795,-3.11075 1.27806,0 2.07384,0.86811 0.79577,0.84401 0.79577,1.88092 0,1.18161 -0.69931,2.00149 -0.67521,0.81989 -1.78447,0.81989 -0.65108,0 -1.25394,-0.28937 -0.57875,-0.31349 -0.94046,-0.6752 -0.36172,-0.38583 -0.74755,-0.69932 -0.38583,-0.31348 -0.6752,-0.31348 -0.89223,0 -1.80857,0.65108 -1.27806,0.89223 -1.27806,3.44835 l 0,10.4174 q 0,0.65109 0.28937,1.08515 0.31348,0.40994 0.77166,0.62697 0.45817,0.21703 1.30217,0.40994 l 0.40995,0.0965 q 0.38582,0.0965 0.38582,0.45817 l 0,1.13338 -0.0965,0.0965 q -3.95475,-0.0965 -5.8839,-0.0965 l -5.7151,0.0965 -0.0965,-0.0965 0,-1.13338 q 0,-0.38583 0.3376,-0.45817 l 0.48229,-0.0965 q 1.22983,-0.24114 1.80857,-0.69931 0.57875,-0.48229 0.57875,-1.42275 l 0,-12.03306 q 0,-1.73623 -0.26526,-2.26675 -0.24114,-0.55463 -0.81989,-0.60285 l -2.0256,-0.19292 -0.0965,-1.688 q 6.02859,-0.79578 8.29534,-1.47098 0.3376,0 0.3376,0.14469 l -0.0965,3.11075 0.0965,0 z"
         id="path3405"
         inkscape:connector-curvature="0" />
      <path
         d="m 372.24911,260.88011 q -3.30367,2.86961 -6.17327,2.84549 -3.15898,0 -4.5335,-1.27806 -1.37452,-1.27806 -1.37452,-3.90652 0,-2.72492 2.12207,-4.1959 2.12206,-1.47097 6.46264,-2.74903 l 3.56892,-1.03692 q 0,-4.38881 -0.86811,-5.85978 -0.86812,-1.49509 -2.60435,-1.49509 -1.47098,0 -2.48378,0.45817 -1.0128,0.45817 -1.0128,1.25395 0,0.55462 0.14468,1.22983 0.14469,0.65108 0.14469,0.89223 0,0.60286 -0.79577,1.25394 -0.77166,0.62698 -1.76035,0.62698 -2.31498,0 -2.33909,-2.07384 0,-2.12206 2.94195,-3.81006 2.94195,-1.71212 5.85978,-1.71212 3.61715,0 5.85979,1.8568 2.24263,1.83269 2.24263,6.67968 l 0,7.16196 q 0,1.08514 0.0482,1.66389 0.0482,0.55463 0.21703,1.22983 0.1688,0.65108 0.57874,0.96457 0.43406,0.28937 1.10926,0.28937 0.69932,0 1.08515,-0.38583 0.40994,-0.40994 0.45817,-0.40994 0.14469,0 0.38583,0.38583 0.26526,0.36171 0.26526,0.60286 0,0.19291 -0.55463,0.74754 -0.53052,0.53052 -1.688,1.08515 -1.13338,0.53051 -2.36321,0.53051 -2.17029,0 -3.27955,-0.6752 -1.10926,-0.69931 -1.54332,-2.17029 l -0.12057,0 z m 0.0723,-1.83269 0,-6.63144 -2.82138,0.844 q -2.41143,0.74754 -3.27955,1.80857 -0.86811,1.06104 -0.86811,2.74904 0,3.20721 3.11075,3.20721 1.39863,0 3.85829,-1.97738 z"
         id="path3407"
         inkscape:connector-curvature="0" />
      <path
         d="m 391.75761,244.12064 0,12.46712 q 0,3.61715 1.27806,3.59303 1.83269,0 3.3519,-1.22983 l 1.13337,1.13338 q -2.77315,3.66538 -6.96904,3.64126 -4.24413,0 -4.24413,-5.01578 l 0,-14.58918 -2.50789,0 q -0.89223,0 -0.89223,-0.38583 l 0,-1.5192 q 0,-0.38583 1.88092,-0.40995 1.73623,0 2.33909,-1.54331 0.62697,-1.56744 0.62697,-4.8711 l 4.00298,-1.54332 0,7.95773 4.67819,0 q 1.08514,0 1.08514,0.50641 l 0,0.98868 q 0,0.84401 -1.83269,0.81989 l -3.93064,0 z"
         id="path3409"
         inkscape:connector-curvature="0" />
      <path
         d="m 408.63766,247.37608 0,12.05717 q 0,0.98869 0.55463,1.44686 0.57874,0.43406 1.76034,0.6752 l 0.50641,0.0965 q 0.38583,0.0965 0.38583,0.45817 l 0,1.13338 -0.0965,0.0965 q -4.00298,-0.0965 -5.93213,-0.0965 l -5.76333,0.0965 -0.0965,-0.0965 0,-1.13338 q 0,-0.38583 0.3376,-0.45817 l 0.60286,-0.0965 q 1.22983,-0.19291 1.76035,-0.65108 0.55463,-0.48229 0.55463,-1.47098 l 0,-12.03306 q 0,-1.73623 -0.28937,-2.3632 -0.26526,-0.65109 -0.79578,-0.69932 l -2.0256,-0.21703 -0.0965,-1.47097 q 6.60733,-0.89223 8.44002,-1.47098 0.3376,0 0.3376,0.14469 -0.0241,0.40994 -0.0482,1.06103 0,0.65109 -0.0482,2.26675 -0.0482,1.61566 -0.0482,2.72492 z m -4.8711,-10.22448 q -0.844,-0.86812 -0.844,-2.09795 0,-1.25395 0.844,-2.09795 0.86812,-0.86812 2.09795,-0.86812 1.25394,0 2.09795,0.86812 0.86811,0.844 0.86811,2.09795 0,1.22983 -0.86811,2.09795 -0.84401,0.844 -2.09795,0.844 -1.22983,0 -2.09795,-0.844 z"
         id="path3411"
         inkscape:connector-curvature="0" />
      <path
         d="m 433.69246,245.85687 -5.83567,15.36084 q -0.60286,1.51921 -1.10926,2.07384 -0.5064,0.55463 -1.3504,0.55463 -1.03692,0 -1.68801,-0.57875 -0.65108,-0.57874 -1.22983,-2.00149 l -5.66687,-14.51683 q -0.28937,-0.72344 -0.53051,-1.15749 -0.21703,-0.45818 -0.62698,-0.98869 -0.40994,-0.55463 -1.0128,-0.844 -0.60286,-0.28938 -1.39863,-0.36172 -0.48229,-0.0482 -0.5064,-0.36171 l 0,-1.22984 0.1688,-0.0964 q 3.01429,0.0964 4.96755,0.0964 l 6.07682,-0.0964 0.21703,0.0964 0,1.18161 q 0,0.3376 -0.40995,0.40994 l -0.844,0.0965 q -1.08514,0.14468 -1.25394,0.60286 -0.16881,0.43406 0.26525,1.5192 l 4.89521,12.443 4.43704,-12.49123 q 0.3376,-0.94046 -0.14468,-1.32629 -0.48229,-0.40994 -1.97738,-0.79577 l -0.19291,-0.0482 q -0.38583,-0.0965 -0.38583,-0.36171 l 0,-1.18161 0.19291,-0.14468 q 3.11075,0.0964 5.08813,0.0964 l 3.81007,-0.0964 0.0965,0.0964 0,1.13338 q 0,0.38583 -0.55463,0.45817 -2.65258,0.28937 -3.49658,2.45966 z"
         id="path3413"
         inkscape:connector-curvature="0" />
      <path
         d="m 450.50015,243.34898 q -2.21852,0 -3.44835,2.58024 -1.20571,2.55612 -1.20571,6.00447 0,2.0256 0.60285,4.14767 0.60286,2.12206 2.0015,3.83418 1.39863,1.688 3.27955,1.688 1.73623,0 3.06252,-1.61566 1.32629,-1.63978 1.32629,-5.83567 0,-5.18459 -1.54332,-7.98185 -1.51921,-2.82138 -4.07533,-2.82138 z m -10.65854,9.66985 q 0,-5.23281 2.94195,-8.46413 2.96607,-3.23132 8.19888,-3.23132 2.86961,0 5.11224,1.0128 2.26675,1.0128 3.5207,2.70081 1.25394,1.66389 1.8568,3.59303 0.62697,1.92915 0.62697,3.95476 0,1.92914 -0.69931,3.85829 -0.6752,1.90503 -2.00149,3.56892 -1.30218,1.63978 -3.49658,2.6767 -2.19441,1.03691 -4.96756,1.03691 -5.13635,0 -8.12653,-3.27955 -2.96607,-3.27955 -2.96607,-7.42722 z"
         id="path3415"
         inkscape:connector-curvature="0" />
    </g>
    <g
       transform="translate(152.27917,-181.05832)"
       id="g4355">
      <path
         id="path4357"
         d="m 138.08737,456.32303 101.42858,0 c 2.77,0 5,2.23 5,5 l 0,101.42857 c 0,2.77 -2.23,5 -5,5 l -101.42858,0 c -2.77,0 -5,-2.23 -5,-5 l 0,-101.42857 c 0,-2.77 2.23,-5 5,-5 z"
         style="opacity:1;fill:#333333;fill-opacity:0.65895948;stroke:none;stroke-width:5;stroke-linecap:round;stroke-linejoin:round;stroke-miterlimit:4;stroke-dasharray:none;stroke-opacity:1;filter:url(#filter4251)"
         inkscape:connector-curvature="0" />
      <g
         id="g4359"
         transform="translate(0,0.3345004)">
        <path
           id="path4361"
           d="m 138.08737,454.32303 101.42858,0 c 2.77,0 5,2.23 5,5 l 0,101.42857 c 0,2.77 -2.23,5 -5,5 l -101.42858,0 c -2.77,0 -5,-2.23 -5,-5 l 0,-101.42857 c 0,-2.77 2.23,-5 5,-5 z"
           style="opacity:1;fill:#800000;fill-opacity:1;stroke:none;stroke-width:5;stroke-linecap:round;stroke-linejoin:round;stroke-miterlimit:4;stroke-dasharray:none;stroke-opacity:1"
           inkscape:connector-curvature="0" />
        <path
           id="path4363"
           d="m 158.19336,454.32227 0,3.51171 c 0,0.97873 0.64597,1.4668 1.93945,1.4668 l 5.48438,0.3457 c 3.93669,0.2303 5.90429,3.22519 5.90429,8.98243 l 0,83.33593 c 0,3.28163 -0.7034,5.61241 -2.10937,6.99414 -1.40595,1.32417 -3.87885,2.21716 -7.42188,2.67774 l -2.44726,0.3457 c -0.89982,0.17272 -1.34961,0.71947 -1.34961,1.64063 l 0,2.1289 49.43359,0 0,-2.1289 c -0.0562,-0.97874 -0.53377,-1.52548 -1.43359,-1.64063 l -3.29102,-0.3457 c -3.54302,-0.34543 -6.1566,-1.23842 -7.84375,-2.67774 -1.63091,-1.49688 -2.44726,-3.82766 -2.44726,-6.99414 l 0,-34.19922 c 2.36201,0.40301 5.51058,0.60547 9.44726,0.60547 15.57804,0 26.88231,-3.57 33.91211,-10.70898 3.96885,-4.03048 6.81679,-8.50079 8.54492,-13.41211 l 0,-22.16992 c -1.19952,-2.99732 -3.19812,-6.04633 -6.01367,-9.15039 -2.86816,-3.28163 -7.25512,-5.90192 -13.16015,-7.85938 -0.77777,-0.26796 -1.57794,-0.51572 -2.39649,-0.74804 l -64.75195,0 z m 44.70898,4.97851 c 14.39703,0 21.59571,8.60812 21.59571,25.82227 0,17.44444 -7.75946,26.16601 -23.28125,26.16601 -3.31807,0 -6.18722,-0.17214 -8.60547,-0.51758 l 0,-41.79687 c 0,-3.39677 0.64596,-5.84492 1.93945,-7.3418 1.29347,-1.55446 4.07744,-2.33203 8.35156,-2.33203 z"
           style="opacity:1;fill:#ffffff;fill-opacity:1;stroke:none;stroke-width:5;stroke-linecap:round;stroke-linejoin:round;stroke-miterlimit:4;stroke-dasharray:none;stroke-opacity:1"
           inkscape:connector-curvature="0" />
        <path
           clip-path="url(#clipPath4275)"
           style="opacity:1;fill:#ffffff;fill-opacity:1;stroke:none;stroke-width:5;stroke-linecap:round;stroke-linejoin:round;stroke-miterlimit:4;stroke-dasharray:none;stroke-opacity:1"
           d="m 138.08737,454.32303 101.42858,0 c 2.77,0 5,2.23 5,5 l 0,101.42857 c 0,2.77 -2.23,5 -5,5 l -101.42858,0 c -2.77,0 -5,-2.23 -5,-5 l 0,-101.42857 c 0,-2.77 2.23,-5 5,-5 z"
           id="path4365"
           inkscape:connector-curvature="0" />
        <path
           sodipodi:nodetypes="cssccsscsccccssccsccsscccscscccsssssssssccscssssc"
           inkscape:connector-curvature="0"
           id="path4367"
           d="m 162.75339,565.75119 0,-3.68555 c 0,-0.53491 -0.11413,-0.93567 -0.33984,-1.20312 -0.22572,-0.26746 -0.56421,-0.40235 -1.01563,-0.40235 -4.05175,-0.37181 -2.34392,0.63322 -5.56445,-1.90039 -0.78999,-0.63345 -1.38235,-1.42482 -1.77735,-2.375 -0.39499,-0.95017 -0.59179,-2.05927 -0.59179,-3.32617 l 0,-42.73633 23.4813,0 c 1.07212,0 1.94591,0.28264 2.62305,0.8457 0.67712,0.50677 1.24193,1.46344 1.69336,2.8711 0.50785,1.35136 0.84635,2.56102 1.01562,3.63086 0.16929,1.01352 0.42315,2.67581 0.76172,4.98437 0,0.56307 0.23174,0.98409 0.69727,1.26563 0.46552,0.28153 1.16464,0.42383 2.0957,0.42383 l 3.63867,0 1.01563,-1.52149 c -0.79,-6.81311 -1.1836,-12.18939 -1.1836,-16.13086 0,-4.223 0.3936,-9.57161 1.1836,-16.04687 l -1.01563,-1.68946 -3.63867,0 c -0.84641,0 -1.5234,0.1957 -2.03125,0.58985 -0.50785,0.39414 -0.76172,0.81712 -0.76172,1.26758 -0.33857,2.30857 -0.59243,3.96889 -0.76172,4.98242 -0.16927,0.9572 -0.50777,2.16884 -1.01562,3.63281 -0.22572,0.70384 -0.48696,1.29483 -0.78321,1.77344 -0.29624,0.4786 -0.62736,0.84428 -0.99414,1.09765 -0.67712,0.50676 -1.52336,0.75977 -2.53906,0.75977 l -23.4813,0 0,-35.55664 c -0.0282,-1.6892 0.15578,-2.95618 0.55078,-3.80078 0.19749,-0.4223 0.4467,-0.74002 0.75,-0.95117 0.3033,-0.21115 0.65926,-0.31641 1.06836,-0.31641 l 26.52818,0 c 1.03686,0 2.04079,0.11266 3.00976,0.33789 0.96897,0.22523 1.90361,0.56322 2.80469,1.01367 0.90108,0.45046 1.76837,1.01378 2.60156,1.68945 0.83319,0.67568 1.63119,1.46433 2.39649,2.36524 0.7653,0.90091 1.4979,1.91488 2.19531,3.04102 0.69741,1.12613 1.36071,2.36348 1.99023,3.71484 1.25905,2.70272 2.38166,5.85731 3.36914,9.46094 l 6.94141,-1.52149 c -0.87463,-4.44822 -1.61606,-9.00819 -2.22266,-13.68164 -0.60536,-4.66395 -1.07759,-9.44182 -1.41601,-14.33008 l -65.9442,0 c -2.77,0 -5,2.23 -5,5 l 0,101.42774 c 0,2.77 2.23,5 5,5 z"
           style="opacity:1;fill:#333333;fill-opacity:1;stroke:none;stroke-width:5;stroke-linecap:round;stroke-linejoin:round;stroke-miterlimit:4;stroke-dasharray:none;stroke-opacity:1" />
      </g>
    </g>
  </g>
</svg>
