<?xml version="1.0" encoding="UTF-8" standalone="no"?>
<svg
   xmlns:dc="http://purl.org/dc/elements/1.1/"
   xmlns:cc="http://creativecommons.org/ns#"
   xmlns:rdf="http://www.w3.org/1999/02/22-rdf-syntax-ns#"
   xmlns:svg="http://www.w3.org/2000/svg"
   xmlns="http://www.w3.org/2000/svg"
   xmlns:sodipodi="http://sodipodi.sourceforge.net/DTD/sodipodi-0.dtd"
   xmlns:inkscape="http://www.inkscape.org/namespaces/inkscape"
   width="687.07849pt"
   height="171.13028pt"
   viewBox="0 0 687.07849 171.13028"
   version="1.1"
   id="svg2"
   inkscape:version="0.91 r"
   sodipodi:docname="logo_fp.svg">
  <metadata
     id="metadata61">
    <rdf:RDF>
      <cc:Work
         rdf:about="">
        <dc:format>image/svg+xml</dc:format>
        <dc:type
           rdf:resource="http://purl.org/dc/dcmitype/StillImage" />
        <dc:title></dc:title>
      </cc:Work>
    </rdf:RDF>
  </metadata>
  <defs
     id="defs59" />
  <sodipodi:namedview
     pagecolor="#ffffff"
     bordercolor="#666666"
     borderopacity="1"
     objecttolerance="10"
     gridtolerance="10"
     guidetolerance="10"
     inkscape:pageopacity="0"
     inkscape:pageshadow="2"
     inkscape:window-width="1440"
     inkscape:window-height="843"
     id="namedview57"
     showgrid="false"
     fit-margin-top="0"
     fit-margin-left="0"
     fit-margin-right="0"
     fit-margin-bottom="0"
     inkscape:zoom="0.34015748"
     inkscape:cx="391.12916"
     inkscape:cy="107.02534"
     inkscape:window-x="1280"
     inkscape:window-y="30"
     inkscape:window-maximized="1"
     inkscape:current-layer="svg2" />
  <g
     id="#f1f2ecff"
     transform="translate(-26.939268,-50.49)" />
  <g
     id="#3f3b39ff"
     transform="translate(-26.939268,-50.49)">
    <path
       d="m 230.62,50.49 c 0.87,0.01 2.6,0.04 3.46,0.05 0.03,55.51 0.01,111.02 0.01,166.54 -0.86,0.01 -2.59,0.03 -3.45,0.05 0,-55.55 0.02,-111.1 -0.02,-166.64 z"
       id="path6"
       inkscape:connector-curvature="0"
       style="opacity:1;fill:#3f3b39" />
    <path
       d="m 293.41,59.54 c 8.74,-2.41 17.98,-1.47 26.66,0.72 0.71,4.73 1.5,9.47 1.77,14.26 -1.07,0.15 -2.14,0.3 -3.2,0.45 -1.39,-4.02 -3.17,-8.28 -6.84,-10.74 -6.33,-3.99 -15.09,-3.01 -20.79,1.65 -6.19,5.45 -8.8,14.01 -8.55,22.07 0.23,7.25 2.29,14.86 7.4,20.23 4.9,5.28 13.18,7.44 19.87,4.5 5,-2.39 7.86,-7.41 10.47,-12.05 1.11,0.43 2.22,0.87 3.34,1.3 -1.52,4.66 -3.07,9.3 -4.97,13.81 -11.8,2.88 -25.5,3.99 -35.91,-3.43 -12.66,-8.72 -15.11,-27.81 -6.9,-40.35 3.88,-6.35 10.64,-10.4 17.65,-12.42 z"
       id="path8"
       inkscape:connector-curvature="0"
       style="opacity:1;fill:#3f3b39" />
    <path
       d="m 158.03,81.76 c 17.19,0.66 34.64,-5.11 47.81,-16.23 -7.23,13.39 -20.58,22.45 -34.52,27.81 -14.45,5.62 -30.63,5.51 -45.51,1.7 -3.75,-0.8 -7.56,-2.39 -11.43,-1.53 -2.66,0.66 -4.35,3.11 -5.38,5.49 -2.6,5.91 -4.63,12.04 -7.23,17.94 -5.27,-0.31 -10.5,-0.93 -15.72,-1.68 2.33,-6.04 4.92,-11.98 7.15,-18.06 1.73,-4.24 -1.87,-9.07 -6.11,-9.82 -1.51,-0.71 -4.26,-0.38 -4.54,-2.5 -1.43,-5.13 2.21,-11.13 7.5,-12.12 3.59,-0.68 7.23,0.31 10.79,0.79 18.94,3.47 37.88,7.55 57.19,8.21 z"
       id="path10"
       inkscape:connector-curvature="0"
       style="opacity:1;fill:#3f3b39" />
    <path
       d="m 571.63,75.27 c 1.69,0.76 3.35,1.84 5.3,1.73 8.25,0.03 16.5,-0.01 24.75,-0.02 1.2,-0.65 2.42,-1.29 3.65,-1.91 0.2,3.99 0.36,7.98 0.69,11.96 -0.55,-0.01 -1.66,-0.03 -2.21,-0.04 -0.8,-2.33 -1.16,-5.09 -3.2,-6.72 -2.7,-1.15 -5.74,-0.7 -8.59,-0.84 -0.05,9.18 0.02,18.37 -0.05,27.55 0.04,2.12 -0.1,4.32 0.62,6.36 2.15,1.13 4.95,1.14 6.39,3.4 -6.89,0.44 -13.81,0.39 -20.7,0.04 1.23,-3.29 6.84,-1.54 6.6,-5.66 0.31,-10.55 0.01,-21.13 0.13,-31.69 -3.11,0.21 -6.61,-0.51 -9.35,1.29 -1.87,2.22 -1.65,6.01 -4.86,6.99 0.18,-4.16 0.56,-8.3 0.83,-12.44 z"
       id="path12"
       inkscape:connector-curvature="0"
       style="opacity:1;fill:#3f3b39" />
    <path
       d="m 342.56,76.78 c 6.6,-1.92 14.15,-0.35 19.24,4.34 7.96,7.92 8.27,22.05 0.98,30.49 -5.03,5.79 -13.58,7.69 -20.81,5.57 -6.19,-1.81 -11.21,-6.89 -12.98,-13.09 -3.52,-10.72 2.11,-24.43 13.57,-27.31 m 1.64,2.57 c -3.19,1.21 -5.47,4.1 -6.61,7.24 -2.31,6.06 -2.01,12.9 -0.05,19.01 1.39,3.77 3.88,7.57 7.81,9.02 3.83,1.75 8.67,0.28 11.12,-3.09 3.1,-4.14 3.59,-9.56 3.54,-14.56 -0.22,-5.96 -1.73,-12.54 -6.69,-16.37 -2.64,-1.7 -6.14,-2.6 -9.12,-1.25 z"
       id="path14"
       inkscape:connector-curvature="0"
       style="opacity:1;fill:#3f3b39" />
    <path
       d="m 462.5,76.79 c 6.82,-2 14.69,-0.27 19.76,4.8 7.42,7.89 7.62,21.19 0.93,29.56 -6.61,8.09 -19.82,9.12 -27.83,2.55 -10,-8.04 -9.67,-25.2 0.13,-33.26 2.01,-1.75 4.46,-2.91 7.01,-3.65 m 1.76,2.54 c -5.42,2.1 -7.7,8.25 -8.15,13.62 -0.47,6.54 0.52,13.79 5.09,18.82 3.1,3.54 8.74,4.81 12.77,2.1 4.43,-3.03 5.72,-8.73 5.99,-13.76 0.24,-6.06 -0.57,-12.71 -4.58,-17.53 -2.54,-3.24 -7.24,-4.77 -11.12,-3.25 z"
       id="path16"
       inkscape:connector-curvature="0"
       style="opacity:1;fill:#3f3b39" />
    <path
       d="m 550.66,76.7 c 0.97,-0.21 1.95,-0.41 2.94,-0.62 4.24,11.62 8.29,23.3 12.69,34.86 1.04,3.03 4.79,3.32 6.5,5.8 -6.03,0.39 -12.11,0.46 -18.13,-0.07 1.42,-1.28 2.98,-2.4 4.39,-3.71 -0.61,-3.34 -1.97,-6.49 -2.97,-9.73 -4.16,0.01 -8.32,0 -12.48,0.03 -1.16,3.25 -2.14,6.57 -2.78,9.97 1.9,0.87 3.86,1.74 5.16,3.47 -5.1,0.45 -10.27,0.52 -15.36,-0.11 1.8,-2.31 5.48,-2.51 6.46,-5.5 4.74,-11.37 8.95,-22.97 13.58,-34.39 m -5.99,23.31 c 3.38,-0.02 6.77,-0.02 10.16,-0.02 -1.54,-4.82 -3.31,-9.57 -4.84,-14.39 -1.91,4.75 -3.43,9.65 -5.32,14.41 z"
       id="path18"
       inkscape:connector-curvature="0"
       style="opacity:1;fill:#3f3b39" />
    <path
       d="m 688.53,76.77 c 6.83,-2.01 14.72,-0.23 19.77,4.86 6.9,7.36 7.47,19.39 2.17,27.81 -4.16,6.33 -12.22,9.61 -19.64,8.32 -6.91,-0.83 -13.06,-5.81 -15.39,-12.36 -4.41,-10.91 1.18,-25.56 13.09,-28.63 m 1.69,2.58 c -5.36,2.12 -7.69,8.21 -8.09,13.58 -0.57,7.16 0.74,15.48 6.63,20.28 3.83,3.19 10.12,2.75 13.31,-1.15 3.22,-3.89 3.89,-9.17 3.95,-14.05 -0.09,-5.4 -1.05,-11.19 -4.64,-15.44 -2.58,-3.22 -7.26,-4.86 -11.16,-3.22 z"
       id="path20"
       inkscape:connector-curvature="0"
       style="opacity:1;fill:#3f3b39" />
    <path
       d="m 371.97,77.29 c 5.65,-0.51 11.33,-0.23 16.99,-0.29 3.62,0.18 7.59,0.18 10.66,2.4 4.42,3.05 5.13,9.91 1.86,14.04 -1.53,1.77 -3.59,2.95 -5.56,4.16 4.01,6.71 7.21,14.5 14.03,18.89 -0.19,0.42 -0.59,1.27 -0.79,1.69 -3.53,-0.41 -7.56,-0.34 -10.35,-2.89 -3.96,-3.82 -5.68,-9.2 -8.43,-13.83 -1.14,-2.03 -3.69,-1.87 -5.66,-2.28 0.08,4.25 -0.33,8.53 0.2,12.75 0.21,2.33 2.88,2.43 4.61,3.02 0.11,0.5 0.34,1.5 0.45,2.01 -6.11,-0.05 -12.25,0.38 -18.33,-0.33 1.64,-2.47 6.23,-1.92 6.22,-5.43 0.34,-7.06 0.01,-14.13 0.14,-21.19 -0.1,-3.08 0.34,-6.27 -0.56,-9.27 -1.85,-1.11 -3.97,-1.83 -5.48,-3.45 m 12.86,3.83 c -0.42,5.33 -0.02,10.69 -0.12,16.03 2.2,-0.2 4.52,-0.04 6.63,-0.86 5.72,-2.47 6.34,-11.5 1.68,-15.25 -2.26,-1.46 -6.55,-2.81 -8.19,0.08 z"
       id="path22"
       inkscape:connector-curvature="0"
       style="opacity:1;fill:#3f3b39" />
    <path
       d="m 411.2,77.26 c 5.24,-0.48 10.51,-0.2 15.77,-0.27 4.34,0.07 9.26,0.33 12.57,3.54 3.69,3.93 3.84,10.47 0.9,14.87 -3.77,5.08 -10.88,6.61 -16.71,4.64 0.21,4.48 -0.8,9.2 0.72,13.5 1.83,1.2 4.06,1.55 6.03,2.47 -2.3,1.35 -5,0.95 -7.53,1.02 -4.01,-0.05 -8.04,0.14 -12.02,-0.39 1.5,-1.56 3.59,-2.21 5.56,-2.97 1.05,-7.84 0.27,-15.78 0.52,-23.66 -0.18,-3.07 0.53,-6.39 -0.71,-9.29 -1.69,-1.19 -3.76,-1.82 -5.1,-3.46 m 12.66,2.54 c -0.34,5.93 -0.14,11.87 -0.18,17.8 2.45,0.23 5.14,0.81 7.39,-0.56 4.71,-3.01 5.02,-10.06 2.3,-14.5 -1.97,-3.23 -6.21,-3.21 -9.51,-2.74 z"
       id="path24"
       inkscape:connector-curvature="0"
       style="opacity:1;fill:#3f3b39" />
    <path
       d="m 491.98,77.29 c 5.32,-0.53 10.67,-0.22 16,-0.3 4.12,0.14 8.71,0.04 12.12,2.75 3.37,2.48 4.1,7.37 2.79,11.15 -1.14,3.2 -4.2,5.06 -6.96,6.71 3.94,6.7 7.23,14.31 13.86,18.84 -0.13,0.44 -0.4,1.32 -0.53,1.75 -3.55,-0.43 -7.6,-0.32 -10.42,-2.87 -3.99,-3.83 -5.71,-9.25 -8.49,-13.89 -1.14,-2 -3.68,-1.84 -5.63,-2.24 0.02,4.27 -0.3,8.57 0.22,12.83 0.25,2.27 2.91,2.33 4.59,2.95 0.11,0.49 0.33,1.49 0.45,1.99 -6.11,-0.05 -12.25,0.37 -18.33,-0.33 1.49,-1.68 3.67,-2.27 5.58,-3.3 0.84,-1.65 0.74,-3.55 0.79,-5.35 -0.03,-7.32 -0.03,-14.65 0,-21.97 -0.05,-1.78 0.03,-3.63 -0.63,-5.32 -1.83,-1.11 -3.94,-1.78 -5.41,-3.4 m 12.85,3.8 c -0.42,5.34 0.01,10.71 -0.15,16.06 2.25,-0.2 4.61,-0.07 6.79,-0.84 5.54,-2.67 6.2,-11.5 1.55,-15.27 -2.26,-1.47 -6.51,-2.8 -8.19,0.05 z"
       id="path26"
       inkscape:connector-curvature="0"
       style="opacity:1;fill:#3f3b39" />
    <path
       d="m 609.96,77.3 c 6.34,-0.49 12.73,-0.47 19.06,0 -1.57,2.39 -6.14,1.99 -5.91,5.5 -0.3,8.05 0.01,16.12 -0.14,24.18 0.11,2.06 -0.25,4.29 0.71,6.21 1.8,1.13 3.86,1.9 5.38,3.47 -6.35,0.52 -12.77,0.56 -19.11,0 1.5,-1.56 3.55,-2.33 5.36,-3.46 0.97,-1.89 0.6,-4.12 0.72,-6.17 -0.14,-8.04 0.14,-16.09 -0.13,-24.13 0.05,-3.39 -4.33,-3.24 -5.94,-5.6 z"
       id="path28"
       inkscape:connector-curvature="0"
       style="opacity:1;fill:#3f3b39" />
    <path
       d="m 630.22,77.25 c 6.16,-0.41 12.37,-0.39 18.54,0.01 -1.29,1.64 -3.22,2.5 -4.86,3.71 2.79,9.15 6.5,18 9.82,26.97 3.24,-8.89 7.27,-17.61 9.31,-26.88 -1.76,-1.29 -3.71,-2.31 -5.4,-3.69 5.01,-0.63 10.07,-0.32 15.11,-0.34 -0.03,0.49 -0.09,1.46 -0.12,1.95 -1.9,0.79 -4.32,1.17 -5.38,3.16 -2.2,3.76 -3.47,7.97 -5.06,12 -3.13,7.94 -6.35,15.85 -9.28,23.87 -0.7,0 -2.1,0 -2.79,0 -4.56,-11.58 -8.54,-23.4 -13.34,-34.88 -0.95,-3.15 -4.87,-3.31 -6.55,-5.88 z"
       id="path30"
       inkscape:connector-curvature="0"
       style="opacity:1;fill:#3f3b39" />
    <path
       d="m 81.18,125.52 c 5.04,1.19 10,2.73 14.9,4.39 -6.52,16.51 -13.09,33.63 -25.24,46.94 -7.25,8.07 -17.83,13.76 -28.91,12.95 -7.65,-0.47 -14.04,-7.12 -14.81,-14.65 -1.65,-10.06 8.28,-19.79 18.27,-18.32 -1.97,1.4 -4.36,1.96 -6.46,3.1 -3.64,2.35 -4.79,7.82 -2.23,11.38 2.22,3.61 7.1,4.46 10.89,3.17 5.92,-2.12 10.49,-6.76 14.24,-11.65 8.46,-11.27 14.15,-24.29 19.35,-37.31 z"
       id="path32"
       inkscape:connector-curvature="0"
       style="opacity:1;fill:#3f3b39" />
    <path
       d="m 270.31,131.02 c 8.31,-0.04 16.62,0.01 24.93,-0.03 0,0.75 0,2.27 0,3.03 -2.15,0.52 -4.63,0.52 -6.34,2.1 -0.85,1.43 -0.78,3.19 -0.89,4.79 -0.06,11.72 0.05,23.44 -0.04,35.15 -0.24,6.5 -0.86,13.56 -5.12,18.81 -3.27,4.14 -7.92,7 -12.92,8.55 -0.48,-1.11 -0.96,-2.21 -1.43,-3.31 4.42,-2.44 8.08,-6.51 8.68,-11.69 1.47,-12.1 0.57,-24.33 0.82,-36.49 -0.21,-4.84 0.53,-9.79 -0.5,-14.57 -0.8,-3.12 -4.69,-2.73 -7.18,-3.3 -0.01,-1.02 -0.01,-2.03 -0.01,-3.04 z"
       id="path34"
       inkscape:connector-curvature="0"
       style="opacity:1;fill:#3f3b39" />
    <path
       d="m 461.79,145.69 c 3.52,-2.99 7.5,-5.36 11.32,-7.94 1.14,1.61 2.21,3.29 3.25,4.98 -3.71,1.26 -7.4,2.62 -11.2,3.58 -1.18,0.48 -2.3,-0.28 -3.37,-0.62 z"
       id="path36"
       inkscape:connector-curvature="0"
       style="opacity:1;fill:#3f3b39" />
    <path
       d="m 621.11,152.03 c 7.37,-4.97 16.89,-4.71 25.18,-2.5 0.45,3.31 0.95,6.63 1.34,9.96 -0.56,0.12 -1.68,0.35 -2.23,0.47 -1.06,-2.3 -1.74,-4.95 -3.75,-6.63 -4.72,-4.31 -12.75,-3.18 -16.89,1.39 -4.48,4.82 -5.39,11.97 -4.4,18.25 0.85,5.57 3.94,11.31 9.44,13.44 4.52,2 10.38,0.77 13.28,-3.37 1.78,-1.84 2.4,-5.32 5.62,-5.02 -0.79,3.61 -2.08,7.07 -3.37,10.52 -8.16,1.73 -17.38,2.69 -24.72,-2.13 -11.76,-7.41 -11.32,-27.23 0.5,-34.38 z"
       id="path38"
       inkscape:connector-curvature="0"
       style="opacity:1;fill:#3f3b39" />
    <path
       d="m 688.5,148.78 c 7.07,-2.15 15.3,-0.14 20.29,5.39 6.41,7.43 6.85,19 1.71,27.23 -4.14,6.32 -12.17,9.64 -19.59,8.37 -7.21,-0.83 -13.57,-6.18 -15.72,-13.09 -3.91,-10.8 1.66,-24.93 13.31,-27.9 m 1.77,2.54 c -5.74,2.27 -7.96,8.91 -8.23,14.6 -0.33,7.11 1.2,15.4 7.4,19.78 4.24,3.01 10.74,1.68 13.46,-2.74 2.81,-4.46 3.3,-9.94 3.05,-15.08 -0.36,-5.36 -1.82,-11.12 -6.03,-14.79 -2.63,-2.11 -6.44,-3.22 -9.65,-1.77 z"
       id="path40"
       inkscape:connector-curvature="0"
       style="opacity:1;fill:#3f3b39" />
    <path
       d="m 328.93,149.34 c 6.34,-0.56 12.75,-0.51 19.1,-0.05 -1.54,1.52 -3.58,2.3 -5.34,3.49 -1.24,2.9 -0.52,6.2 -0.7,9.26 0.28,6.56 -1.06,13.63 2.25,19.65 1.98,3.99 7.21,5.04 11.2,3.91 3.78,-0.85 5.96,-4.61 6.86,-8.1 1.1,-5.08 0.6,-10.32 0.71,-15.47 -0.12,-2.99 0.06,-6.12 -1,-8.98 -1.52,-1.23 -3.53,-1.52 -5.34,-2.08 -0.09,-0.47 -0.28,-1.41 -0.37,-1.88 5.14,-0.14 10.28,-0.11 15.43,-0.03 0.02,0.46 0.06,1.39 0.09,1.85 -1.85,0.66 -4.67,0.78 -5.02,3.22 -1.71,9.14 1.13,18.95 -2.64,27.76 -3.42,8.36 -14.81,9.99 -22.18,6.27 -4.49,-2.18 -6.42,-7.29 -6.77,-11.99 -0.57,-7.09 0.08,-14.21 -0.31,-21.31 0.02,-3.34 -4.24,-3.35 -5.97,-5.52 z"
       id="path42"
       inkscape:connector-curvature="0"
       style="opacity:1;fill:#3f3b39" />
    <path
       d="m 395.97,149.29 c 4.98,-0.5 10,-0.23 15,-0.31 4.28,0.01 8.91,0.01 12.64,2.41 4.03,2.76 5,8.73 2.63,12.88 -1.45,2.43 -3.96,3.91 -6.31,5.33 3.68,6.33 6.84,13.31 12.68,17.99 0.74,0.55 1.15,1.28 1.23,2.21 -4,0.44 -8.67,-0.01 -11.61,-3.06 -3.57,-3.86 -5.26,-8.94 -7.92,-13.38 -1.15,-1.95 -3.66,-1.76 -5.59,-2.17 0.13,4.51 -0.57,9.14 0.45,13.58 1.58,1.59 3.81,2.34 5.53,3.78 -6.32,0.72 -12.73,0.66 -19.05,0.08 1.66,-2.48 6.27,-1.93 6.23,-5.49 0.32,-7.05 0,-14.11 0.13,-21.17 -0.08,-3.06 0.31,-6.21 -0.53,-9.2 -1.85,-1.15 -4,-1.84 -5.51,-3.48 m 12.86,3.81 c -0.43,5.34 -0.03,10.72 -0.07,16.07 2.25,-0.22 4.6,-0.1 6.76,-0.88 5.44,-2.72 6.14,-11.45 1.54,-15.22 -2.25,-1.49 -6.55,-2.84 -8.23,0.03 z"
       id="path44"
       inkscape:connector-curvature="0"
       style="opacity:1;fill:#3f3b39" />
    <path
       d="m 456.95,149.33 c 6.34,-0.54 12.74,-0.5 19.08,-0.03 -1.51,1.64 -3.73,2.22 -5.46,3.51 -0.84,2.29 -0.52,4.78 -0.59,7.17 0.14,7.72 -0.16,15.44 0.12,23.15 -0.03,3.35 4.3,3.26 5.97,5.52 -6.35,0.55 -12.77,0.55 -19.12,0.01 1.52,-1.56 3.57,-2.34 5.38,-3.48 0.94,-1.91 0.59,-4.12 0.7,-6.17 -0.15,-8.06 0.15,-16.13 -0.13,-24.19 -0.02,-3.32 -4.34,-3.17 -5.95,-5.49 z"
       id="path46"
       inkscape:connector-curvature="0"
       style="opacity:1;fill:#3f3b39" />
    <path
       d="m 501.23,149.24 c 6.23,-0.45 12.49,-0.19 18.74,-0.24 6.08,0.19 12.95,1.01 17.22,5.86 7.14,8.31 5.84,22.76 -3.15,29.27 -5.15,3.77 -11.71,4.97 -17.97,4.89 -5.16,-0.09 -10.35,0.28 -15.47,-0.43 1.7,-1.46 3.82,-2.25 5.74,-3.37 0.8,-1.63 0.61,-3.51 0.69,-5.26 -0.04,-7.32 -0.04,-14.64 -0.01,-21.95 -0.09,-1.76 0.14,-3.65 -0.71,-5.26 -1.73,-1.14 -3.83,-1.76 -5.08,-3.51 m 13.16,3 c -0.91,8.86 -0.12,17.84 -0.42,26.74 0.17,2.31 -0.41,5.69 2.24,6.81 6.5,2.17 13.91,-1.93 16.23,-8.24 2.17,-6.14 2.37,-13.38 -0.85,-19.19 -3.26,-5.84 -11.01,-8.35 -17.2,-6.12 z"
       id="path48"
       inkscape:connector-curvature="0"
       style="opacity:1;fill:#3f3b39" />
    <path
       d="m 566.96,149.32 c 6.33,-0.53 12.73,-0.48 19.07,-0.02 -1.59,2.38 -6.15,2 -5.92,5.52 -0.29,8.07 0.01,16.15 -0.14,24.23 0.11,2.04 -0.25,4.27 0.73,6.15 1.8,1.13 3.84,1.91 5.35,3.46 -6.34,0.54 -12.76,0.55 -19.1,0 1.49,-1.55 3.52,-2.31 5.31,-3.44 1.02,-1.55 0.64,-3.51 0.77,-5.25 -0.15,-8.36 0.14,-16.73 -0.13,-25.09 0.04,-3.37 -4.34,-3.21 -5.94,-5.56 z"
       id="path50"
       inkscape:connector-curvature="0"
       style="opacity:1;fill:#3f3b39" />
  </g>
  <g
     id="#bdafa2ff"
     transform="translate(-26.939268,-50.49)">
    <path
       d="m 52.86,107.24 c 6.57,2.37 12.96,5.27 19.7,7.15 24.13,7.15 49.86,5.72 74.41,1.65 8.72,-1.52 18.27,-0.76 25.87,4.11 6.95,4.3 12.01,11.67 13.17,19.8 1.7,10.83 -2.34,22.19 -10,29.94 -9.62,9.99 -23.5,14.68 -37.02,16.07 -7.94,1.02 -15.96,0.7 -23.91,0.1 1.77,-4.23 3.63,-8.42 5.6,-12.57 11.17,-0.45 22.6,-0.75 33.23,-4.61 5.2,-1.9 10.48,-4.59 13.71,-9.26 3.92,-5.91 4.49,-14.04 1.07,-20.31 -3.46,-6.17 -10.71,-9.85 -17.73,-9.17 -10.61,1.02 -21.29,1.13 -31.95,0.74 -23.62,-1.46 -47.32,-9.04 -66.15,-23.64 z"
       id="path53"
       inkscape:connector-curvature="0"
       style="opacity:1;fill:#bdafa2" />
    <path
       d="m 106.71,157.4 c 5.53,-0.07 11.06,-0.09 16.59,-0.02 -7.13,17.59 -13.57,36.14 -26.44,50.51 -7.3,8.36 -18.04,14.51 -29.42,13.65 -7.57,-0.62 -14,-7.09 -14.78,-14.61 -1.85,-9.93 8.28,-20.28 18.21,-18.03 -3.19,1.57 -7.51,2.24 -9.15,5.84 -2.72,5.07 1.47,12.16 7.26,12.07 5.95,0.03 10.9,-4.05 14.78,-8.15 10.64,-11.85 17.04,-26.67 22.95,-41.26 z"
       id="path55"
       inkscape:connector-curvature="0"
       style="opacity:1;fill:#bdafa2" />
  </g>
</svg>
